<?xml version="1.0" encoding="UTF-8" standalone="no"?>
<!-- Created with Inkscape (http://www.inkscape.org/) -->

<svg
   xmlns:dc="http://purl.org/dc/elements/1.1/"
   xmlns:cc="http://creativecommons.org/ns#"
   xmlns:rdf="http://www.w3.org/1999/02/22-rdf-syntax-ns#"
   xmlns:svg="http://www.w3.org/2000/svg"
   xmlns="http://www.w3.org/2000/svg"
   xmlns:sodipodi="http://sodipodi.sourceforge.net/DTD/sodipodi-0.dtd"
   xmlns:inkscape="http://www.inkscape.org/namespaces/inkscape"
   width="297mm"
   height="210mm"
   viewBox="0 0 1052.3622 744.09448"
   id="svg4044"
   version="1.1"
   inkscape:version="0.91 r13725"
   sodipodi:docname="POTLOGOblack.svg">
  <defs
     id="defs4046" />
  <sodipodi:namedview
     id="base"
     pagecolor="#ffffff"
     bordercolor="#666666"
     borderopacity="1.0"
     inkscape:pageopacity="0.0"
     inkscape:pageshadow="2"
     inkscape:zoom="0.35"
     inkscape:cx="632.44364"
     inkscape:cy="520"
     inkscape:document-units="px"
     inkscape:current-layer="layer1"
     showgrid="false"
     inkscape:window-width="1366"
     inkscape:window-height="703"
     inkscape:window-x="0"
     inkscape:window-y="0"
     inkscape:window-maximized="1" />
  <metadata
     id="metadata4049">
    <rdf:RDF>
      <cc:Work
         rdf:about="">
        <dc:format>image/svg+xml</dc:format>
        <dc:type
           rdf:resource="http://purl.org/dc/dcmitype/StillImage" />
        <dc:title></dc:title>
      </cc:Work>
    </rdf:RDF>
  </metadata>
  <g
     inkscape:label="Layer 1"
     inkscape:groupmode="layer"
     id="layer1"
     transform="translate(0,-308.26772)">
    <g
       transform="matrix(0.0829958,0,0,0.0829958,-751.10461,-32.940702)"
       class="com.sun.star.drawing.ClosedBezierShape"
       id="g3839">
      <g
         id="id5">
        <rect
           class="BoundingBox"
           x="9836"
           y="8192"
           width="952"
           height="952"
           id="rect3842"
           style="fill:none;stroke:none" />
        <path
           d="m 10597,9143 -570,0 c -106,0 -191,-85 -191,-191 l 0,-570 c 0,-105 85,-190 191,-190 l 570,0 c 105,0 190,85 190,190 l 0,570 c 0,106 -85,191 -190,191 z"
           id="path3844"
           inkscape:connector-curvature="0"
           style="fill:#000000;stroke:none" />
      </g>
    </g>
    <g
       transform="matrix(0.0829958,0,0,0.0829958,-751.10461,-32.940702)"
       class="com.sun.star.drawing.ClosedBezierShape"
       id="g3846">
      <g
         id="id6">
        <path
           style="fill:none;stroke:none"
           d="m 11328,7242 2852,0 0,3802 -2852,0 z"
           id="rect3849" />
        <path
           d="m 13039,9142 -571,0 c -105,0 -190,-85 -190,-190 l 0,-570 c 0,-105 85,-190 190,-190 l 571,0 c 105,0 190,85 190,190 l 0,570 c 0,105 -85,190 -190,190 z m 190,-1900 -951,0 -570,0 c -210,0 -380,170 -380,380 l 0,570 0,950 0,951 0,570 c 0,209 170,380 380,380 l 190,0 c 210,0 380,-171 380,-380 l 0,-380 c 0,-105 85,-190 190,-190 l 761,0 570,0 c 210,0 380,-170 380,-380 l 0,-571 0,-950 0,-570 c 0,-210 -170,-380 -380,-380 l -570,0 z"
           id="path3851"
           inkscape:connector-curvature="0"
           style="fill:#000000;stroke:none" />
      </g>
    </g>
    <g
       transform="matrix(0.0829958,0,0,0.0829958,-751.10461,-32.940702)"
       class="com.sun.star.drawing.ClosedBezierShape"
       id="g3853">
      <g
         id="id7">
        <rect
           class="BoundingBox"
           x="15670"
           y="5750"
           width="952"
           height="952"
           id="rect3856"
           style="fill:none;stroke:none" />
        <path
           d="m 16430,6701 -570,0 c -105,0 -190,-85 -190,-190 l 0,-571 c 0,-105 85,-190 190,-190 l 570,0 c 104,0 191,85 191,190 l 0,571 c 0,105 -87,190 -191,190 z"
           id="path3858"
           inkscape:connector-curvature="0"
           style="fill:#000000;stroke:none" />
      </g>
    </g>
    <g
       transform="matrix(0.0829958,0,0,0.0829958,-751.10461,-32.940702)"
       class="com.sun.star.drawing.ClosedBezierShape"
       id="g3860">
      <g
         id="id8">
        <rect
           class="BoundingBox"
           x="14719"
           y="7241"
           width="2852"
           height="2853"
           id="rect3863"
           style="fill:none;stroke:none" />
        <path
           d="m 16431,9142 -570,0 c -105,0 -190,-85 -190,-190 l 0,-570 c 0,-105 85,-190 190,-190 l 570,0 c 104,0 190,85 190,190 l 0,570 c 0,105 -86,190 -190,190 z m 190,-1900 -950,0 -571,0 c -210,0 -380,170 -380,380 l 0,570 0,950 0,570 c 0,210 170,381 380,381 l 571,0 950,0 569,0 c 210,0 380,-171 380,-381 l 0,-570 0,-950 0,-570 c 0,-210 -170,-380 -380,-380 l -569,0 z"
           id="path3865"
           inkscape:connector-curvature="0"
           style="fill:#000000;stroke:none" />
      </g>
    </g>
    <g
       transform="matrix(0.0829958,0,0,0.0829958,-751.10461,-32.940702)"
       class="com.sun.star.drawing.ClosedBezierShape"
       id="g3867">
      <g
         id="id9">
        <rect
           class="BoundingBox"
           x="17976"
           y="7241"
           width="2853"
           height="2853"
           id="rect3870"
           style="fill:none;stroke:none" />
        <path
           d="m 19878,7242 -950,0 -571,0 c -209,0 -380,170 -380,380 l 0,190 c 0,210 171,380 380,380 l 381,0 c 105,0 190,85 190,190 l 0,760 0,570 c 0,210 170,381 380,381 l 190,0 c 210,0 380,-171 380,-381 l 0,-570 0,-760 c 0,-105 85,-190 190,-190 l 380,0 c 210,0 380,-170 380,-380 l 0,-190 c 0,-210 -170,-380 -380,-380 l -570,0 z"
           id="path3872"
           inkscape:connector-curvature="0"
           style="fill:#000000;stroke:none" />
      </g>
    </g>
  </g>
</svg>
